<svg width="1025" height="159" viewBox="0 0 1025 159" fill="none" xmlns="http://www.w3.org/2000/svg">
<g clip-path="url(#clip0_69_54)">
<path d="M127.679 157.811C85.819 157.811 51.7772 123.757 51.7772 81.9095C51.7772 40.062 85.831 5.99611 127.679 5.99611C169.526 5.99611 203.58 40.0499 203.58 81.8975C203.58 123.745 169.526 157.799 127.679 157.799V157.811ZM127.679 11.6697C88.9509 11.6697 57.4388 43.1819 57.4388 81.9095C57.4388 120.637 88.9509 152.149 127.679 152.149C166.406 152.149 197.918 120.637 197.918 81.9095C197.918 43.1819 166.406 11.6697 127.679 11.6697Z" fill="url(#paint0_linear_69_54)"/>
<path d="M127.679 6.97183C168.996 6.97183 202.616 40.58 202.616 81.9095C202.616 123.239 169.008 156.847 127.679 156.847C86.349 156.847 52.7409 123.239 52.7409 81.9095C52.7409 40.58 86.3611 6.97183 127.679 6.97183ZM127.679 153.113C166.948 153.113 198.894 121.167 198.894 81.8975C198.894 42.6278 166.948 10.682 127.679 10.682C88.4089 10.682 56.4631 42.6278 56.4631 81.8975C56.4631 121.167 88.4089 153.113 127.679 153.113ZM127.679 5.02039C85.289 5.02039 50.8015 39.5079 50.8015 81.8975C50.8015 124.287 85.289 158.775 127.679 158.775C170.068 158.775 204.556 124.287 204.556 81.8975C204.556 39.5079 170.068 5.02039 127.679 5.02039ZM127.679 151.162C89.481 151.162 58.4145 120.095 58.4145 81.8975C58.4145 43.6998 89.493 12.6334 127.679 12.6334C165.864 12.6334 196.943 43.6998 196.943 81.8975C196.943 120.095 165.876 151.162 127.679 151.162Z" fill="url(#paint1_linear_69_54)"/>
<path d="M127.679 122.601C150.258 122.601 168.562 104.296 168.562 81.7168C168.562 59.1373 150.258 40.8329 127.679 40.8329C105.099 40.8329 86.7947 59.1373 86.7947 81.7168C86.7947 104.296 105.099 122.601 127.679 122.601Z" fill="url(#paint2_linear_69_54)"/>
<path d="M162.395 34.4606C171.755 34.4606 179.344 26.8725 179.344 17.512C179.344 8.15154 171.755 0.563385 162.395 0.563385C153.035 0.563385 145.446 8.15154 145.446 17.512C145.446 26.8725 153.035 34.4606 162.395 34.4606Z" fill="url(#paint3_linear_69_54)"/>
<path d="M0.0400085 153.788V7.64639H26.1315V153.788H0.0400085Z" fill="black"/>
<path d="M372.572 7.74276V153.884L346.481 133.84L252.535 61.3953V153.884H226.443V8.16437L252.535 28.2088L346.481 100.653V7.53798L372.572 7.74276Z" fill="black"/>
<path d="M540.264 7.64639V33.7379H480.347V153.788H454.256V33.7379H394.339V7.64639H540.276H540.264Z" fill="black"/>
<path d="M580.003 47.0968V60.6726H673.949V86.764H580.003V114.325C580.003 121.637 586.062 127.684 593.362 127.684H700.053V153.776H593.362C571.655 153.776 554.116 136.032 554.116 114.313V47.0848C554.116 25.378 571.655 7.6223 593.362 7.6223H700.053V33.7138H593.362C586.05 33.7138 580.003 39.7729 580.003 47.0727V47.0968Z" fill="black"/>
<path d="M733.974 80.717C733.974 106.604 755.067 127.696 780.953 127.696H854.024V153.788H780.953C740.66 153.788 707.883 121.011 707.883 80.717C707.883 40.4234 740.66 7.64639 780.953 7.64639H854.024V33.7379H780.953C755.067 33.7379 733.974 54.8303 733.974 80.717Z" fill="black"/>
<path d="M1024.04 7.64639V153.788H997.948V86.7761H904.002V153.788H877.911V7.64639H904.002V60.6726H997.948V7.64639H1024.04Z" fill="black"/>
</g>
<defs>
<linearGradient id="paint0_linear_69_54" x1="74.0381" y1="135.55" x2="181.331" y2="28.257" gradientUnits="userSpaceOnUse">
<stop stop-color="#FC7D22"/>
<stop offset="1" stop-color="#FDBB3F"/>
</linearGradient>
<linearGradient id="paint1_linear_69_54" x1="73.3394" y1="136.237" x2="182.018" y2="27.5704" gradientUnits="userSpaceOnUse">
<stop stop-color="#FC7D22"/>
<stop offset="1" stop-color="#FDBB3F"/>
</linearGradient>
<linearGradient id="paint2_linear_69_54" x1="98.7684" y1="110.627" x2="156.589" y2="52.8066" gradientUnits="userSpaceOnUse">
<stop stop-color="#FC7D22"/>
<stop offset="1" stop-color="#FDBB3F"/>
</linearGradient>
<linearGradient id="paint3_linear_69_54" x1="150.409" y1="29.4977" x2="174.381" y2="5.5263" gradientUnits="userSpaceOnUse">
<stop stop-color="#FC7D22"/>
<stop offset="1" stop-color="#FDBB3F"/>
</linearGradient>
<clipPath id="clip0_69_54">
<rect width="1024" height="158.223" fill="white" transform="translate(0.0400085 0.563385)"/>
</clipPath>
</defs>
</svg>
